<svg width="45" height="44" viewBox="0 0 45 44" fill="none" xmlns="http://www.w3.org/2000/svg">
<path fill-rule="evenodd" clip-rule="evenodd" d="M13.0986 0.331604H31.8836C39.2286 0.331604 44.1469 5.48827 44.1469 13.1583V30.8621C44.1469 38.5104 39.2286 43.6649 31.8836 43.6649H13.0986C5.75358 43.6649 0.813583 38.5104 0.813583 30.8621V13.1583C0.813583 5.48827 5.75358 0.331604 13.0986 0.331604ZM22.4586 15.6304C21.4403 15.6304 20.5953 14.7833 20.5953 13.7454C20.5953 12.6838 21.4403 11.8388 22.5019 11.8388C23.5419 11.8388 24.3869 12.6838 24.3869 13.7454C24.3869 14.7833 23.5419 15.6304 22.4586 15.6304ZM24.3652 30.1904C24.3652 31.2304 23.5203 32.0754 22.4586 32.0754C21.4186 32.0754 20.5736 31.2304 20.5736 30.1904V20.6138C20.5736 19.5716 21.4186 18.7071 22.4586 18.7071C23.5203 18.7071 24.3652 19.5716 24.3652 20.6138V30.1904Z" fill="#F3983F"/>
</svg>
